<mxfile host="Electron" modified="2024-06-15T17:36:39.997Z" agent="Mozilla/5.0 (Windows NT 10.0; Win64; x64) AppleWebKit/537.36 (KHTML, like Gecko) draw.io/21.2.8 Chrome/112.0.5615.165 Electron/24.2.0 Safari/537.36" etag="nNscItUWJZ7DVubqLkAQ" version="21.2.8" type="device">
  <diagram name="Página-1" id="QZbcBfqSjCsryhHa68gD">
    <mxGraphModel dx="1434" dy="854" grid="1" gridSize="10" guides="1" tooltips="1" connect="1" arrows="1" fold="1" page="1" pageScale="1" pageWidth="827" pageHeight="1169" math="0" shadow="0">
      <root>
        <mxCell id="0" />
        <mxCell id="1" parent="0" />
        <mxCell id="JRbFyEIlGtZFDS7XLbTl-10" style="edgeStyle=orthogonalEdgeStyle;rounded=0;orthogonalLoop=1;jettySize=auto;html=1;" parent="1" source="JRbFyEIlGtZFDS7XLbTl-2" target="JRbFyEIlGtZFDS7XLbTl-3" edge="1">
          <mxGeometry relative="1" as="geometry">
            <Array as="points">
              <mxPoint x="640" y="170" />
              <mxPoint x="640" y="170" />
            </Array>
          </mxGeometry>
        </mxCell>
        <mxCell id="JRbFyEIlGtZFDS7XLbTl-30" style="edgeStyle=orthogonalEdgeStyle;rounded=0;orthogonalLoop=1;jettySize=auto;html=1;entryX=1;entryY=1;entryDx=0;entryDy=0;entryPerimeter=0;" parent="1" source="JRbFyEIlGtZFDS7XLbTl-2" target="JRbFyEIlGtZFDS7XLbTl-6" edge="1">
          <mxGeometry relative="1" as="geometry">
            <Array as="points">
              <mxPoint x="160" y="230" />
              <mxPoint x="160" y="230" />
            </Array>
          </mxGeometry>
        </mxCell>
        <mxCell id="JRbFyEIlGtZFDS7XLbTl-2" value="shrinkURL" style="rounded=1;whiteSpace=wrap;html=1;" parent="1" vertex="1">
          <mxGeometry x="300" y="147.25" width="120" height="110" as="geometry" />
        </mxCell>
        <mxCell id="JRbFyEIlGtZFDS7XLbTl-31" style="edgeStyle=orthogonalEdgeStyle;rounded=0;orthogonalLoop=1;jettySize=auto;html=1;" parent="1" source="JRbFyEIlGtZFDS7XLbTl-3" edge="1">
          <mxGeometry relative="1" as="geometry">
            <mxPoint x="430" y="220" as="targetPoint" />
            <Array as="points">
              <mxPoint x="566" y="220" />
              <mxPoint x="566" y="221" />
            </Array>
          </mxGeometry>
        </mxCell>
        <mxCell id="JRbFyEIlGtZFDS7XLbTl-3" value="" style="outlineConnect=0;dashed=0;verticalLabelPosition=bottom;verticalAlign=top;align=center;html=1;shape=mxgraph.aws3.dynamo_db;fillColor=#2E73B8;gradientColor=none;" parent="1" vertex="1">
          <mxGeometry x="700" y="150" width="72" height="81" as="geometry" />
        </mxCell>
        <mxCell id="JRbFyEIlGtZFDS7XLbTl-4" value="URL-Database" style="text;html=1;align=center;verticalAlign=middle;resizable=0;points=[];autosize=1;strokeColor=none;fillColor=none;" parent="1" vertex="1">
          <mxGeometry x="686" y="240" width="100" height="30" as="geometry" />
        </mxCell>
        <mxCell id="JRbFyEIlGtZFDS7XLbTl-7" style="edgeStyle=orthogonalEdgeStyle;rounded=0;orthogonalLoop=1;jettySize=auto;html=1;" parent="1" source="JRbFyEIlGtZFDS7XLbTl-6" target="JRbFyEIlGtZFDS7XLbTl-2" edge="1">
          <mxGeometry relative="1" as="geometry">
            <Array as="points">
              <mxPoint x="80" y="190" />
              <mxPoint x="80" y="190" />
            </Array>
          </mxGeometry>
        </mxCell>
        <mxCell id="JRbFyEIlGtZFDS7XLbTl-6" value="User" style="shape=umlActor;verticalLabelPosition=bottom;verticalAlign=top;html=1;outlineConnect=0;" parent="1" vertex="1">
          <mxGeometry x="30" y="174.5" width="30" height="55.5" as="geometry" />
        </mxCell>
        <mxCell id="JRbFyEIlGtZFDS7XLbTl-9" value="1. POST /shrinkURL&lt;br&gt;" style="text;html=1;align=center;verticalAlign=middle;resizable=0;points=[];autosize=1;strokeColor=none;fillColor=none;" parent="1" vertex="1">
          <mxGeometry x="30" y="20" width="130" height="30" as="geometry" />
        </mxCell>
        <mxCell id="JRbFyEIlGtZFDS7XLbTl-17" value="&lt;div style=&quot;color: rgb(171, 178, 191); background-color: rgb(40, 44, 52); font-family: &amp;quot;Cascadia Code&amp;quot;, &amp;quot;Fira Code&amp;quot;, Consolas, &amp;quot;Courier New&amp;quot;, monospace; line-height: 19px; font-size: 9px;&quot;&gt;&lt;div&gt;{&lt;/div&gt;&lt;div&gt;&amp;nbsp; &quot;urlToShrink&quot;: &lt;span style=&quot;color: #98c379;&quot;&gt;&quot;www.protondb.com&quot;&lt;/span&gt;,&lt;/div&gt;&lt;div&gt;&amp;nbsp; &lt;span style=&quot;color: #e06c75;&quot;&gt;&quot;expirateAfterDays&quot;&lt;/span&gt;: &lt;span style=&quot;color: #d19a66;&quot;&gt;90&lt;/span&gt;&lt;/div&gt;&lt;div&gt;}&lt;/div&gt;&lt;/div&gt;" style="text;html=1;align=left;verticalAlign=middle;resizable=0;points=[];autosize=1;strokeColor=none;fillColor=none;" parent="1" vertex="1">
          <mxGeometry x="50" y="40" width="210" height="90" as="geometry" />
        </mxCell>
        <mxCell id="JRbFyEIlGtZFDS7XLbTl-26" value="&lt;div style=&quot;color: rgb(171, 178, 191); background-color: rgb(40, 44, 52); font-family: &amp;quot;Cascadia Code&amp;quot;, &amp;quot;Fira Code&amp;quot;, Consolas, &amp;quot;Courier New&amp;quot;, monospace; line-height: 19px; font-size: 11px;&quot;&gt;&lt;div&gt;{&lt;/div&gt;&lt;div&gt;&amp;nbsp; &quot;newURL&quot;: &lt;span style=&quot;color: #98c379;&quot;&gt;&quot;base_url/tdyu4w9f&quot;,&lt;/span&gt;&lt;/div&gt;&lt;div&gt;&lt;span style=&quot;color: #98c379;&quot;&gt;&amp;nbsp; &quot;daysToExpire&quot;: 10&lt;/span&gt;&lt;/div&gt;&lt;div&gt;}&lt;/div&gt;&lt;/div&gt;" style="text;html=1;align=left;verticalAlign=middle;resizable=0;points=[];autosize=1;strokeColor=none;fillColor=none;" parent="1" vertex="1">
          <mxGeometry x="466" y="221" width="230" height="90" as="geometry" />
        </mxCell>
        <mxCell id="7wueIib8C4fDfpB8pywO-1" value="POST" style="text;html=1;align=center;verticalAlign=middle;resizable=0;points=[];autosize=1;strokeColor=none;fillColor=none;" vertex="1" parent="1">
          <mxGeometry x="160" y="160" width="60" height="30" as="geometry" />
        </mxCell>
        <mxCell id="7wueIib8C4fDfpB8pywO-3" value="1. Verifica se URL ja existe na base. Se já existir, retorna o dado e os dias que faltam para expirar&lt;br&gt;2. Caso a URL não exista, cria a URL encurtada, faz insert no banco e retorna a URL encurtada&lt;br&gt;3. Criar mecanismo de delete/desativação dos registros expirados (usar time to live do DynamoDB)&lt;br&gt;4. Observabilidade (Cloudwatch/Prometheus/Grafana)&lt;br&gt;5. Testes unitários" style="text;html=1;strokeColor=none;fillColor=none;align=left;verticalAlign=middle;whiteSpace=wrap;rounded=0;" vertex="1" parent="1">
          <mxGeometry x="26" y="330" width="660" height="110" as="geometry" />
        </mxCell>
      </root>
    </mxGraphModel>
  </diagram>
</mxfile>
